#!OML:ASF E:\VariousWalksJay\Project 1\Capture day 1\Session 1\Actor2.ASF
:FULLY-SPECIFIED
:DEGREES
1946
root 8.73074 17.2311 4.43804 194.974 -13.5166 -176.001
lowerback 9.71023 4.01513 8.58344
upperback 1.83995 6.0278 -0.923163
thorax -2.5008 2.89217 -6.43114
lowerneck 2.89105 1.81355 0.984442
upperneck 23.4299 -1.57856 8.63375
head 6.71757 -0.871164 2.46479
rclavicle 3.35946e-014 -7.95139e-015
rhumerus -23.6022 23.9496 -74.5619
rradius 74.0099
rwrist 3.09792
rhand -24.9765 -1.96665
rfingers 7.12502
rthumb 1.53429 -31.9409
lclavicle 3.35946e-014 -7.95139e-015
lhumerus -3.61718 -48.8518 62.4778
lradius 71.6195
lwrist 15.098
lhand -23.4442 -13.9487
lfingers 7.12502
lthumb 3.01408 16.0098
rfemur -36.3053 -26.0204 29.9922
rtibia 41.2869
rfoot -22.2667 -20.3527
rtoes -1.36566
lfemur -42.4775 -23.7966 4.07118
ltibia 30.7973
lfoot -11.0508 -23.4615
ltoes 4.70906
1947
root 8.73112 17.2327 4.44252 194.979 -13.6357 -175.982
lowerback 9.77672 4.06148 8.60762
upperback 1.79105 6.10076 -1.01698
thorax -2.56367 2.92541 -6.5585
lowerneck 3.01764 1.74968 1.12789
upperneck 23.4648 -1.68011 8.59221
head 6.71311 -0.918187 2.42196
rclavicle 1.11518e-013 -1.59028e-014
rhumerus -23.7152 23.7743 -74.745
rradius 73.9893
rwrist 3.09432
rhand -25.0674 -1.9467
rfingers 7.12502
rthumb 1.44651 -31.9215
lclavicle 1.11518e-013 -1.59028e-014
lhumerus -3.59511 -49.1263 62.3696
lradius 71.5382
lwrist 15.1585
lhand -23.4224 -13.9252
lfingers 7.12502
lthumb 3.03517 16.0329
rfemur -36.3121 -26.0884 30.045
rtibia 41.2386
rfoot -22.241 -20.4194
rtoes -1.51241
lfemur -42.5839 -23.9219 4.16232
ltibia 30.8235
lfoot -11.1206 -23.3431
ltoes 4.49693
1948
root 8.7296 17.2317 4.44545 194.971 -13.7496 -175.923
lowerback 9.75949 4.12444 8.70017
upperback 1.79503 6.19033 -1.09489
thorax -2.5154 2.97303 -6.69716
lowerneck 2.99687 1.67653 1.24466
upperneck 23.5837 -1.84318 8.68978
head 6.76474 -0.98289 2.42699
rclavicle 5.60573e-014 -1.07344e-014
rhumerus -23.7582 23.5525 -74.8493
rradius 73.9584
rwrist 3.06616
rhand -25.0283 -1.96251
rfingers 7.12502
rthumb 1.48422 -31.9371
lclavicle 5.60573e-014 -1.07344e-014
lhumerus -3.48487 -49.4017 62.2379
lradius 71.4656
lwrist 15.1612
lhand -23.3816 -13.9363
lfingers 7.12502
lthumb 3.07454 16.0213
rfemur -36.3071 -26.1988 30.136
rtibia 41.1949
rfoot -22.2616 -20.3843
rtoes -1.4901
lfemur -42.648 -24.0147 4.26924
ltibia 30.8437
lfoot -11.2033 -23.2576
ltoes 4.36373
1949
root 8.72887 17.2336 4.4486 194.953 -13.8376 -175.925
lowerback 9.78132 4.12581 8.62241
upperback 1.79689 6.18596 -1.09994
thorax -2.53421 2.97039 -6.66097
lowerneck 3.00152 1.6421 1.24322
upperneck 23.6747 -1.88438 8.57813
head 6.79508 -1.01006 2.38959
rclavicle 3.27995e-014 3.57812e-015
rhumerus -23.7624 23.579 -74.88
rradius 73.9665
rwrist 3.0675
rhand -25.0897 -1.9462
rfingers 7.12502
rthumb 1.42493 -31.9212
lclavicle 3.27995e-014 3.57812e-015
lhumerus -3.5595 -49.4551 62.3235
lradius 71.354
lwrist 15.1224
lhand -23.3694 -13.928
lfingers 7.12502
lthumb 3.08641 16.0295
rfemur -36.2871 -26.2648 30.1441
rtibia 41.1636
rfoot -22.2554 -20.4558
rtoes -1.64804
lfemur -42.7407 -24.1507 4.33082
ltibia 30.9157
lfoot -11.2159 -23.1695
ltoes 4.47313
1950
root 8.72704 17.2335 4.44968 194.917 -13.9231 -175.886
lowerback 9.70053 4.08445 8.53061
upperback 1.84585 6.11134 -1.05484
thorax -2.46582 2.93788 -6.54578
lowerneck 2.9416 1.6558 1.19493
upperneck 23.7993 -1.87269 8.50595
head 6.84513 -1.01132 2.37581
rclavicle 5.14852e-014 -4.77083e-015
rhumerus -23.5968 23.8161 -74.8454
rradius 73.9241
rwrist 2.98054
rhand -25.107 -1.94083
rfingers 7.12502
rthumb 1.40826 -31.9159
lclavicle 5.14852e-014 -4.77083e-015
lhumerus -3.68061 -49.3572 62.4183
lradius 71.2558
lwrist 15.1009
lhand -23.3367 -13.9692
lfingers 7.12502
lthumb 3.11792 15.9878
rfemur -36.2373 -26.3441 30.1833
rtibia 41.1269
rfoot -22.2832 -20.4728
rtoes -1.66027
lfemur -42.7605 -24.2217 4.37234
ltibia 30.9775
lfoot -11.3526 -23.111
ltoes 4.15935
1951
root 8.73206 17.2273 4.4621 195.385 -13.2175 -175.65
lowerback 9.32518 4.45085 8.40009
upperback 1.63282 6.57638 -1.1671
thorax -2.40514 3.17527 -6.60236
lowerneck 2.99463 1.56619 1.33229
upperneck 23.8687 -2.03557 8.53228
head 6.8675 -1.08201 2.3533
rclavicle -5.9039e-014 6.83819e-014
rhumerus -23.7792 23.6141 -74.9923
rradius 73.9314
rwrist 3.05634
rhand -25.1414 -1.99508
rfingers 7.12502
rthumb 1.37496 -31.9704
lclavicle -5.9039e-014 6.83819e-014
lhumerus -3.63491 -49.6604 62.3515
lradius 71.2274
lwrist 15.0916
lhand -23.321 -13.9737
lfingers 7.12502
lthumb 3.13307 15.9831
rfemur -36.8891 -25.6132 30.5544
rtibia 41.092
rfoot -22.0871 -20.4736
rtoes -1.79803
lfemur -43.0852 -23.5403 4.65399
ltibia 31.0538
lfoot -11.5597 -22.7723
ltoes 3.64843
1952
root 8.72958 17.2289 4.45938 195.271 -13.3205 -175.613
lowerback 9.29753 4.41436 8.38571
upperback 1.66307 6.52149 -1.16264
thorax -2.3695 3.1503 -6.581
lowerneck 3.00554 1.53874 1.31804
upperneck 23.9046 -2.07956 8.5122
head 6.87916 -1.10741 2.34721
rclavicle 3.35946e-014 -5.96354e-015
rhumerus -23.786 23.665 -75.0606
rradius 73.9178
rwrist 3.07535
rhand -25.074 -1.9582
rfingers 7.12502
rthumb 1.44006 -31.9331
lclavicle 3.35946e-014 -5.96354e-015
lhumerus -3.61823 -49.7276 62.3585
lradius 71.0911
lwrist 15.0993
lhand -23.295 -13.9679
lfingers 7.12502
lthumb 3.15818 15.9885
rfemur -36.7115 -25.7084 30.5505
rtibia 41.0355
rfoot -22.1302 -20.5297
rtoes -1.9518
lfemur -43.0281 -23.6621 4.67804
ltibia 31.1065
lfoot -11.5667 -22.7858
ltoes 3.84772
1953
root 8.7266 17.2304 4.45736 195.153 -13.3939 -175.589
lowerback 9.24875 4.29638 8.24224
upperback 1.72232 6.34345 -1.05422
thorax -2.3392 3.06358 -6.36624
lowerneck 2.92874 1.62423 1.07109
upperneck 24.0306 -1.97733 8.52314
head 6.92766 -1.07657 2.39914
rclavicle -4.6118e-014 3.18055e-015
rhumerus -23.5972 24.1053 -74.9796
rradius 73.8746
rwrist 3.02698
rhand -25.0017 -1.95115
rfingers 7.12502
rthumb 1.5099 -31.9256
lclavicle -4.6118e-014 3.18055e-015
lhumerus -3.91872 -49.4427 62.6374
lradius 71.0223
lwrist 15.0633
lhand -23.3024 -13.9935
lfingers 7.12502
lthumb 3.15109 15.963
rfemur -36.5289 -25.7998 30.5273
rtibia 40.974
rfoot -22.1693 -20.5775
rtoes -2.04313
lfemur -42.9417 -23.7336 4.65187
ltibia 31.1578
lfoot -11.5927 -22.8314
ltoes 3.86704
1954
root 8.72359 17.2315 4.45343 195.018 -13.4362 -175.523
lowerback 9.27975 4.30844 8.33592
upperback 1.67365 6.37433 -1.12679
thorax -2.38352 3.07632 -6.50276
lowerneck 2.99993 1.54856 1.17861
upperneck 24.0566 -2.11244 8.55229
head 6.93121 -1.1376 2.38349
rclavicle 1.0138e-014 -2.34566e-014
rhumerus -23.7652 23.9772 -75.13
rradius 73.8548
rwrist 3.03881
rhand -24.9931 -1.98256
rfingers 7.12502
rthumb 1.51819 -31.9569
lclavicle 1.0138e-014 -2.34566e-014
lhumerus -3.99585 -49.7134 62.627
lradius 71.0295
lwrist 15.0461
lhand -23.2649 -13.9923
lfingers 7.12502
lthumb 3.18728 15.9636
rfemur -36.3119 -25.8671 30.5336
rtibia 40.8908
rfoot -22.2096 -20.5847
rtoes -2.06653
lfemur -42.7925 -23.7617 4.64198
ltibia 31.1578
lfoot -11.6019 -22.8722
ltoes 3.88082
1955
root 8.72047 17.2334 4.44872 194.891 -13.4084 -175.485
lowerback 9.36047 4.44522 8.56879
upperback 1.55557 6.59143 -1.38483
thorax -2.45772 3.18026 -6.93491
lowerneck 3.19717 1.33553 1.65925
upperneck 23.9741 -2.47197 8.68282
head 6.89057 -1.27786 2.32518
rclavicle 4.44284e-014 3.97569e-016
rhumerus -24.2118 23.3256 -75.501
rradius 73.8503
rwrist 3.13236
rhand -25.037 -1.91981
rfingers 7.12502
rthumb 1.4758 -31.8944
lclavicle 4.44284e-014 3.97569e-016
lhumerus -3.71651 -50.495 62.2401
lradius 71.0538
lwrist 15.1301
lhand -23.2445 -13.9726
lfingers 7.12502
lthumb 3.207 15.983
rfemur -36.1002 -25.8969 30.4985
rtibia 40.808
rfoot -22.1907 -20.6081
rtoes -2.20053
lfemur -42.6096 -23.7451 4.57583
ltibia 31.1556
lfoot -11.6062 -22.91
ltoes 3.92273
1956
root 8.71663 17.2351 4.44381 194.749 -13.3818 -175.448
lowerback 9.22038 4.28458 8.32231
upperback 1.65375 6.33759 -1.20191
thorax -2.37068 3.05982 -6.56694
lowerneck 2.97151 1.46777 1.22307
upperneck 24.1007 -2.27014 8.63383
head 6.95888 -1.20923 2.39449
rclavicle -1.15295e-014 -4.96962e-015
rhumerus -23.88 24.0078 -75.3154
rradius 73.7849
rwrist 3.06094
rhand -25.0243 -1.88887
rfingers 7.12502
rthumb 1.48807 -31.8634
lclavicle -1.15295e-014 -4.96962e-015
lhumerus -4.17582 -49.9125 62.6915
lradius 71.0099
lwrist 15.0613
lhand -23.2281 -14.0327
lfingers 7.12502
lthumb 3.22281 15.9227
rfemur -35.8677 -25.9412 30.451
rtibia 40.7314
rfoot -22.208 -20.5953
rtoes -2.21391
lfemur -42.3961 -23.7222 4.49274
ltibia 31.1325
lfoot -11.5683 -22.9943
ltoes 4.08414
